<?xml version="1.0" encoding="utf-8"?>
<!-- Generator: Adobe Illustrator 26.1.0, SVG Export Plug-In . SVG Version: 6.00 Build 0)  -->
<svg version="1.1" id="Layer_1" xmlns="http://www.w3.org/2000/svg" xmlns:xlink="http://www.w3.org/1999/xlink" x="0px" y="0px"
	 viewBox="0 0 781.6 92.6" style="enable-background:new 0 0 781.6 92.6;" xml:space="preserve">
<style type="text/css">
	.st0{fill:#FFFFFF;}
</style>
<g id="Layer_2_1_">
	<g id="Layer_2_2_">
		<path id="Kin_and_Carta_Logo_1_" class="st0" d="M207.3,54.5L165,1.4h-17.6v90h20.7V40.5l40.5,50.9H228v-90h-20.7V54.5z M98,1.4
			h22.8v90.1H98V1.4z M80,1.4H51.9L22.8,40.3V1.4H0v90h22.8V67.8l8.6-10L54,91.4h27.3L46.8,39.9L80,1.4z M390.7,19.6
			c10.2,0,17.3,4.6,21.5,11.9l17.5-11.2C421,6.3,409.3,0,390.6,0C367.8,0,344,16.8,344,46.3s24.1,46.3,46.9,46.3
			c18.1,0,30.2-6.3,38.9-20.3L413,61.5c-4.2,7.3-11.9,12-22.2,12c-14.2,0-24-11.2-24-27.2S376.6,19.6,390.7,19.6L390.7,19.6z
			 M609.1,34.4c0-18.2-12.9-33-32.6-33h-39.8v90h22.8v-24h11.7l16.1,24h25.6L593.7,63C603.4,57.1,609.1,46.5,609.1,34.4L609.1,34.4z
			 M571.6,49.2h-12.1V19.6h12.1c8.8,0,15.1,6,15.1,14.8S580.4,49.2,571.6,49.2z M501.2,91.4h23l-37.8-90h-14.5l-37.8,90.1h23
			l4.9-12.7h34.4L501.2,91.4L501.2,91.4z M468,62.6l11.1-29.3l11.1,29.3H468z M758.6,91.4h23l-37.8-90h-14.5l-37.8,90.1h23l4.8-12.7
			h34.4L758.6,91.4L758.6,91.4z M725.4,62.6l11.1-29.3l11.1,29.3H725.4L725.4,62.6z M695.1,19.5V1.4h-72v18.1h24.6v71.9h22.8V19.5
			L695.1,19.5z M296.3,39.1V16.3h-14.6v22.8H258v14.6h23.7v22.7h14.6V53.7h23.8V39.1H296.3z"/>
	</g>
</g>
</svg>
