<svg id="Layer_1" data-name="Layer 1" xmlns="http://www.w3.org/2000/svg" viewBox="0 0 311.32 312.27"><defs><style>.cls-1,.cls-2{fill:#fff;}.cls-2{fill-rule:evenodd;}</style></defs><path class="cls-1" d="M135.29,154.91h20c4.87,0,11.27,0,14.59,2a13.08,13.08,0,0,1,6.48,11.49,12.74,12.74,0,0,1-8.18,12.35v.15c6.79,1.39,10.49,6.48,10.49,13.27,0,8.1-5.78,15.82-16.74,15.82H135.29Zm7.33,23.69h14.66c8.33,0,11.73-3,11.73-8.8,0-7.64-5.4-8.72-11.73-8.72H142.62Zm0,25.22H161c6.32,0,10.34-3.85,10.34-9.87,0-7.18-5.79-9.18-12-9.18H142.62Z"/><path class="cls-1" d="M197.39,182.48a41.9,41.9,0,1,1-41.9-41.9A41.89,41.89,0,0,1,197.39,182.48Zm-41.9-48.29a48.27,48.27,0,1,0,48.27,48.26A48.26,48.26,0,0,0,155.49,134.19Z"/><rect class="cls-1" x="107.33" y="240.9" width="96.33" height="6.33"/><path class="cls-1" d="M200.64,233.93H201a.82.82,0,0,0,.28-.07.53.53,0,0,0,.2-.16.58.58,0,0,0,.07-.32.4.4,0,0,0-.07-.26.37.37,0,0,0-.17-.16.78.78,0,0,0-.23-.08h-1v1.07Zm.24-1.5a1.34,1.34,0,0,1,.88.24.87.87,0,0,1,.3.72.82.82,0,0,1-.26.67,1.11,1.11,0,0,1-.64.25l1,1.48h-.56l-.92-1.44h-.55v1.44h-.53v-3.36Zm-2.37,2.65a2.39,2.39,0,0,0,.49.79,2.44,2.44,0,0,0,.76.52,2.37,2.37,0,0,0,.93.18,2.42,2.42,0,0,0,.94-.18,2.8,2.8,0,0,0,.75-.52,2.39,2.39,0,0,0,.49-.79,2.43,2.43,0,0,0,.19-1,2.4,2.4,0,0,0-.19-1,2.2,2.2,0,0,0-.49-.77,2.59,2.59,0,0,0-.75-.52,2.43,2.43,0,0,0-.94-.19,2.38,2.38,0,0,0-.93.19,2.28,2.28,0,0,0-.76.52,2.2,2.2,0,0,0-.49.77,2.4,2.4,0,0,0-.19,1,2.43,2.43,0,0,0,.19,1M198,233a3.19,3.19,0,0,1,.62-.91,3,3,0,0,1,.93-.6,2.81,2.81,0,0,1,1.11-.21,2.87,2.87,0,0,1,1.13.21,2.78,2.78,0,0,1,.9.6,2.86,2.86,0,0,1,.63.91,2.94,2.94,0,0,1,0,2.28,2.75,2.75,0,0,1-.63.91,2.66,2.66,0,0,1-.9.61,2.88,2.88,0,0,1-1.13.22,2.82,2.82,0,0,1-1.11-.22,2.89,2.89,0,0,1-.93-.61,3.06,3.06,0,0,1-.62-.91,3.06,3.06,0,0,1,0-2.28"/><path class="cls-1" d="M119,113a3.77,3.77,0,0,0-.86-1,4,4,0,0,0-2.51-.87,4.38,4.38,0,0,0-2.19.5A4.12,4.12,0,0,0,112,113a6.2,6.2,0,0,0-.82,1.91,9.63,9.63,0,0,0-.25,2.22,9,9,0,0,0,.25,2.14,6,6,0,0,0,.82,1.86,4.09,4.09,0,0,0,1.47,1.33,4.38,4.38,0,0,0,2.19.5,3.54,3.54,0,0,0,2.75-1.07,4.92,4.92,0,0,0,1.2-2.83h3.71a8.83,8.83,0,0,1-.75,3,7.26,7.26,0,0,1-1.61,2.25,6.74,6.74,0,0,1-2.35,1.41,8.42,8.42,0,0,1-3,.49,8.86,8.86,0,0,1-3.6-.7,7.7,7.7,0,0,1-2.69-1.91,8.48,8.48,0,0,1-1.69-2.87,10.49,10.49,0,0,1-.58-3.55,10.86,10.86,0,0,1,.58-3.62,8.81,8.81,0,0,1,1.69-2.92,7.67,7.67,0,0,1,2.69-2,8.86,8.86,0,0,1,3.6-.71,8.65,8.65,0,0,1,2.72.42,7.44,7.44,0,0,1,2.3,1.21,6.62,6.62,0,0,1,1.67,2,7.14,7.14,0,0,1,.83,2.68h-3.71A3.16,3.16,0,0,0,119,113Z"/><path class="cls-1" d="M128.29,122.71a3.07,3.07,0,0,0,2.24.76,3.11,3.11,0,0,0,1.81-.52,2.24,2.24,0,0,0,.93-1.11h3a5.79,5.79,0,0,1-2.25,3.24,6.62,6.62,0,0,1-3.66,1,7.11,7.11,0,0,1-2.68-.48,5.65,5.65,0,0,1-2-1.35,6.21,6.21,0,0,1-1.28-2.1,7.71,7.71,0,0,1-.45-2.69,7.31,7.31,0,0,1,.46-2.63,6.09,6.09,0,0,1,3.36-3.51,6.38,6.38,0,0,1,2.62-.52,6,6,0,0,1,2.81.63,5.57,5.57,0,0,1,2,1.67,6.91,6.91,0,0,1,1.11,2.39,8.67,8.67,0,0,1,.24,2.8h-9.1A3.49,3.49,0,0,0,128.29,122.71Zm3.91-6.63a2.4,2.4,0,0,0-1.89-.69,3,3,0,0,0-1.38.29,2.51,2.51,0,0,0-.87.69,2.6,2.6,0,0,0-.47.88,4.14,4.14,0,0,0-.16.83h5.64A3.91,3.91,0,0,0,132.2,116.08Z"/><path class="cls-1" d="M141.39,113.13v2.34h.05a4.23,4.23,0,0,1,.66-1.09,4.05,4.05,0,0,1,1-.85,4.51,4.51,0,0,1,1.15-.55,4.05,4.05,0,0,1,1.26-.2,2.82,2.82,0,0,1,.76.13v3.22a5.77,5.77,0,0,0-.59-.09c-.22,0-.44,0-.65,0a3.66,3.66,0,0,0-1.61.32,2.78,2.78,0,0,0-1.07.87,3.48,3.48,0,0,0-.57,1.28,7.22,7.22,0,0,0-.17,1.58v5.69H138.1V113.13Z"/><path class="cls-1" d="M155.49,113.13v2.31H153v6.25a1.18,1.18,0,0,0,1.47,1.46,5.15,5.15,0,0,0,.56,0l.51-.07v2.68a8.74,8.74,0,0,1-1,.1l-1,0a9.34,9.34,0,0,1-1.53-.11,3.59,3.59,0,0,1-1.27-.42,2.36,2.36,0,0,1-.86-.91,3.1,3.1,0,0,1-.32-1.53v-7.45h-2.1v-2.31h2.1v-3.79H153v3.79Z"/><path class="cls-1" d="M157.51,111.17v-2.85H161v2.85Zm3.46,2v12.61h-3.46V113.13Z"/><path class="cls-1" d="M162.35,115.44v-2.31h2.07v-1a3.8,3.8,0,0,1,1.05-2.76,4.28,4.28,0,0,1,3.17-1.07c.31,0,.62,0,.93,0l.9.06V111a10.46,10.46,0,0,0-1.27-.07,1.32,1.32,0,0,0-1,.33,1.64,1.64,0,0,0-.3,1.11v.76h2.39v2.31h-2.39v10.3h-3.47v-10.3Z"/><path class="cls-1" d="M172.62,111.17v-2.85h3.47v2.85Zm3.47,2v12.61h-3.47V113.13Z"/><path class="cls-1" d="M181.55,122.71a3.1,3.1,0,0,0,2.25.76,3.06,3.06,0,0,0,1.8-.52,2.14,2.14,0,0,0,.93-1.11h3.05a5.83,5.83,0,0,1-2.24,3.24,6.62,6.62,0,0,1-3.66,1,7.16,7.16,0,0,1-2.69-.48,5.69,5.69,0,0,1-2-1.35,6.05,6.05,0,0,1-1.28-2.1,7.71,7.71,0,0,1-.45-2.69,7.31,7.31,0,0,1,.46-2.63,6.11,6.11,0,0,1,3.35-3.51,6.43,6.43,0,0,1,2.63-.52,5.9,5.9,0,0,1,2.8.63,5.6,5.6,0,0,1,2,1.67,6.91,6.91,0,0,1,1.11,2.39,9.26,9.26,0,0,1,.24,2.8h-9.1A3.49,3.49,0,0,0,181.55,122.71Zm3.92-6.63a2.42,2.42,0,0,0-1.89-.69,3,3,0,0,0-1.38.29,2.46,2.46,0,0,0-.88.69,2.57,2.57,0,0,0-.46.88,4.14,4.14,0,0,0-.16.83h5.64A4,4,0,0,0,185.47,116.08Z"/><path class="cls-1" d="M200.32,124.13a3.61,3.61,0,0,1-1.6,1.48,5.32,5.32,0,0,1-2.23.45,5.44,5.44,0,0,1-2.49-.55,4.94,4.94,0,0,1-1.77-1.49,6.58,6.58,0,0,1-1-2.16,8.91,8.91,0,0,1-.35-2.54,8.39,8.39,0,0,1,.35-2.45,6.23,6.23,0,0,1,1-2.09,5.09,5.09,0,0,1,4.18-2,5,5,0,0,1,2.14.48,3.81,3.81,0,0,1,1.6,1.4h0v-6.34h3.47v17.42h-3.29v-1.61Zm-.15-6.23a3.79,3.79,0,0,0-.5-1.27,2.7,2.7,0,0,0-.92-.89,2.63,2.63,0,0,0-1.41-.35,2.79,2.79,0,0,0-1.44.35,2.62,2.62,0,0,0-.94.9,3.74,3.74,0,0,0-.51,1.28,6.7,6.7,0,0,0-.16,1.5,6.54,6.54,0,0,0,.17,1.46,4,4,0,0,0,.55,1.31,3.12,3.12,0,0,0,1,.93,2.62,2.62,0,0,0,1.38.35,2.73,2.73,0,0,0,1.43-.34,2.59,2.59,0,0,0,.91-.92,4,4,0,0,0,.49-1.3,7.51,7.51,0,0,0,.15-1.51A7.34,7.34,0,0,0,200.17,117.9Z"/><path class="cls-1" d="M115.78,259.66a2.66,2.66,0,0,0-2.69-2.14c-2.42,0-3.33,2.06-3.33,4.21s.91,4.1,3.33,4.1a2.77,2.77,0,0,0,2.79-2.75h2.61a5.18,5.18,0,0,1-5.4,5c-3.79,0-6-2.84-6-6.37s2.24-6.48,6-6.48a5,5,0,0,1,5.3,4.41Z"/><path class="cls-1" d="M124.12,258.69a4.68,4.68,0,1,1-4.58,4.68A4.36,4.36,0,0,1,124.12,258.69Zm0,7.52c1.67,0,2.17-1.43,2.17-2.84s-.5-2.85-2.17-2.85S122,262,122,263.37,122.47,266.21,124.12,266.21Z"/><path class="cls-1" d="M130.23,258.91h2.32v1.65h0a3.14,3.14,0,0,1,2.84-1.89,1.84,1.84,0,0,1,.53.08V261a4.52,4.52,0,0,0-.87-.08c-1.79,0-2.41,1.29-2.41,2.85v4h-2.44Z"/><path class="cls-1" d="M136.91,258.93h2.32v1.13h0a2.94,2.94,0,0,1,2.64-1.37c2.79,0,4,2.24,4,4.77,0,2.37-1.3,4.59-3.9,4.59a3.18,3.18,0,0,1-2.66-1.34h0v4.22h-2.44Zm6.59,4.46c0-1.41-.56-2.87-2.13-2.87s-2.11,1.43-2.11,2.87.55,2.82,2.13,2.82S143.5,264.83,143.5,263.39Z"/><path class="cls-1" d="M151.3,258.69a4.68,4.68,0,1,1-4.59,4.68A4.35,4.35,0,0,1,151.3,258.69Zm0,7.52c1.66,0,2.16-1.43,2.16-2.84s-.5-2.85-2.16-2.85-2.15,1.43-2.15,2.85S149.65,266.21,151.3,266.21Z"/><path class="cls-1" d="M157.41,258.91h2.32v1.65h0a3.12,3.12,0,0,1,2.83-1.89,1.84,1.84,0,0,1,.53.08V261a4.56,4.56,0,0,0-.88-.08c-1.78,0-2.4,1.29-2.4,2.85v4h-2.44Z"/><path class="cls-1" d="M163.85,261.66c.14-2.29,2.18-3,4.17-3,1.77,0,3.9.39,3.9,2.52v4.62a4.44,4.44,0,0,0,.32,2h-2.48a3.66,3.66,0,0,1-.18-.86,4,4,0,0,1-3,1.1c-1.69,0-3-.84-3-2.67,0-2,1.52-2.49,3-2.69s2.89-.17,2.89-1.17-.73-1.2-1.59-1.2-1.52.37-1.61,1.34Zm5.64,1.8a5,5,0,0,1-2,.52c-.76.15-1.45.41-1.45,1.3s.71,1.13,1.5,1.13a1.82,1.82,0,0,0,2-2Z"/><path class="cls-1" d="M176.85,258.93h1.79v1.63h-1.79V265c0,.83.21,1,1,1a3.91,3.91,0,0,0,.76-.07v1.91a10.81,10.81,0,0,1-1.43.08c-1.49,0-2.8-.35-2.8-2.11v-5.24h-1.48v-1.63h1.48v-2.67h2.44Z"/><path class="cls-1" d="M182.92,257.55h-2.44v-2h2.44Zm-2.44,1.38h2.44v8.88h-2.44Z"/><path class="cls-1" d="M189.14,258.69a4.68,4.68,0,1,1-4.58,4.68A4.36,4.36,0,0,1,189.14,258.69Zm0,7.52c1.67,0,2.17-1.43,2.17-2.84s-.5-2.85-2.17-2.85S187,262,187,263.37,187.49,266.21,189.14,266.21Z"/><path class="cls-1" d="M195.33,258.93h2.32v1.23h0a3.17,3.17,0,0,1,2.71-1.47c2.6,0,3.25,1.45,3.25,3.65v5.47h-2.44v-5c0-1.46-.43-2.18-1.56-2.18-1.33,0-1.89.74-1.89,2.54v4.66h-2.44Z"/><g id="Black_logo" data-name="Black logo"><path class="cls-1" d="M207,50.06a7.58,7.58,0,0,0-7.71-7.94h-9.42V63.74h5.39V58h2.76l3.81,5.77h6.06L203.4,56.9A7.81,7.81,0,0,0,207,50.06Zm-8.87,3.56H195.3V46.5h2.87a3.56,3.56,0,1,1,0,7.12Z"/><path class="cls-1" d="M174.58,42.12l-8.94,21.62h5.45l1.14-3.05h8.15l1.14,3.05H187L178,42.12Zm-.91,14.73,2.63-7,2.62,7Z"/><path class="cls-1" d="M155.38,46.52a5.55,5.55,0,0,1,5.08,2.85l4.16-2.69c-2.06-3.38-4.86-4.88-9.27-4.88a11.13,11.13,0,0,0,.07,22.26c4.29,0,7.14-1.5,9.22-4.88l-4-2.6a5.84,5.84,0,0,1-5.27,2.9c-3.35,0-5.68-2.69-5.68-6.55S152.05,46.52,155.38,46.52Z"/><polygon class="cls-1" points="133.11 45.43 129.51 45.43 129.51 50.88 124.06 50.88 124.06 54.48 129.49 54.48 129.49 59.93 133.11 59.93 133.11 54.48 138.52 54.48 138.52 50.88 133.11 50.88 133.11 45.43"/><polygon class="cls-1" points="112.22 54.89 102.23 42.12 98.05 42.12 98.05 63.77 102.93 63.77 102.93 51.54 112.52 63.77 117.12 63.77 117.12 42.12 112.22 42.12 112.22 54.89"/><rect class="cls-1" x="86.14" y="42.12" width="5.38" height="21.63"/><polygon class="cls-1" points="81.9 42.12 75.24 42.12 68.35 51.47 68.35 42.12 62.97 42.12 62.97 63.77 68.35 63.77 68.35 58.09 70.41 55.69 75.74 63.77 82.2 63.77 74.03 51.4 81.9 42.12"/><path class="cls-1" d="M238.89,42.12h-3.42l-8.94,21.62H232l1.14-3.05h8.14l1.14,3.05h5.45Zm-4.33,14.73,2.62-7,2.62,7Z"/><polygon class="cls-2" points="227.37 42.12 210.33 42.12 210.33 46.5 216.15 46.5 216.15 63.77 221.55 63.77 221.55 46.5 227.37 46.5 227.37 42.12"/></g></svg>